<svg width="65" height="78" viewBox="0 0 65 78" fill="none" xmlns="http://www.w3.org/2000/svg">
<g clip-path="url(#clip0)">
<path d="M62.8743 18.5151C53.6028 20.5579 44.7306 24.0483 36.8115 29.3804C29.4236 34.3519 23.1011 40.6965 17.3528 47.4699C13.8107 51.6367 10.4602 55.9703 7.16415 60.3333C6.32253 61.4422 4.78316 59.9472 5.61542 58.8412C11.3719 51.2273 17.2814 43.6487 24.1395 36.9933C30.6173 30.7088 37.9644 25.4073 46.187 21.7002C51.355 19.3751 56.7542 17.6645 62.2685 16.4505C63.6183 16.1532 64.2301 18.221 62.8743 18.5151Z" fill="#3AC882"/>
<path d="M13.6435 60.9373C10.5508 61.0432 7.46409 61.2392 4.45179 62.0361C3.56715 62.2689 2.73304 61.3365 3.20419 60.4934C4.62535 57.9209 4.86232 54.8033 4.51302 51.9454C4.44415 51.3633 5.01498 50.8426 5.55557 50.8267C6.17985 50.8007 6.59167 51.2838 6.66054 51.8659C7.05227 55.0941 6.68322 58.6299 5.08428 61.5171C4.66749 60.9997 4.25071 60.4824 3.83667 59.9744C7.02348 59.1296 10.2968 58.8923 13.5717 58.7822C14.9656 58.7219 15.0247 60.886 13.6435 60.9373Z" fill="#3AC882"/>
</g>
<defs>
<clipPath id="clip0">
<rect width="68.1569" height="35.9717" fill="white" transform="matrix(0.475331 -0.879807 -0.879807 -0.475331 31.6484 77.0625)"/>
</clipPath>
</defs>
</svg>
